<?xml version="1.0" encoding="utf-8"?>
<!-- Generator: Adobe Illustrator 22.1.0, SVG Export Plug-In . SVG Version: 6.00 Build 0)  -->
<svg version="1.1" id="Layer_1" xmlns="http://www.w3.org/2000/svg" xmlns:xlink="http://www.w3.org/1999/xlink" x="0px" y="0px"
	 viewBox="0 0 3000 1100" style="enable-background:new 0 0 3000 1100;" xml:space="preserve">
<style type="text/css">
	.st0{fill:#EAA50C;}
	.st1{fill:#2F3C4F;}
	.st2{fill:#91743A;}
	.st3{fill:#FFFFFF;}
</style>
<g>
	<path class="st0" d="M759.3,2201.7v-711.1c30.8-7.6,53.3-35.9,53.3-68c0-38.6-31.4-70-70-70s-70,31.4-70,70
		c0,5.9,0.7,11.8,2.2,17.5l-485.3,346.8c-13.1-13.1-30.8-20.6-49.5-20.6c-38.6,0-70,31.4-70,70c0,38.6,31.4,70,70,70
		c12.9,0,25.4-3.5,36.3-10.2l499.9,351.2c-2.4,7.2-3.7,14.7-3.7,22.4c0,38.6,31.4,70,70,70s70-31.4,70-70
		C812.6,2237.6,790.1,2209.3,759.3,2201.7z M742.6,2300c-16.7,0-30.3-13.6-30.3-30.3s13.6-30.3,30.3-30.3
		c16.7,0,30.3,13.6,30.3,30.3S759.3,2300,742.6,2300z M206.2,1859h290l195,350.4l-488.2-342.9C204.3,1864.1,205.3,1861.6,206.2,1859
		z M742.6,1392.2c16.7,0,30.3,13.6,30.3,30.3c0,16.7-13.6,30.3-30.3,30.3c-16.7,0-30.3-13.6-30.3-30.3
		C712.3,1405.8,725.9,1392.2,742.6,1392.2z M523.1,1843.5l196.5-353.7v706.7L523.1,1843.5z M208.5,1822.1l482.7-345l-195,351H209.5
		C209.3,1826,208.9,1824,208.5,1822.1z M170.3,1836.3c0,16.7-13.6,30.3-30.3,30.3s-30.3-13.6-30.3-30.3c0-16.7,13.6-30.3,30.3-30.3
		S170.3,1819.6,170.3,1836.3z"/>
	<g>
		<polygon class="st0" points="1151.8,2227.5 1202,2227.5 1202,2209.9 1151.8,2209.9 1151.8,2172.9 1204.8,2172.9 1204.8,2155.1 
			1131.3,2155.1 1131.3,2288 1207.7,2288 1207.7,2270.2 1151.8,2270.2 		"/>
		<path class="st0" d="M1455.3,2155.1h-23.7l-18.2,31.2c-4,6.9-7.1,12.4-10.4,19.1c-3.2-6.2-6.7-12.4-10.5-19.1l-17.6-31.2h-23.8
			l39.1,65.7l-40.6,67.3h23.7l16-29.3c6-10.1,9.5-16.6,12.6-22.9c3.8,6.8,7.9,13.7,13.4,22.7l17,29.5h23.9l-41.4-68.2L1455.3,2155.1
			z"/>
		<path class="st0" d="M1662.2,2170.8c9.4,0,18.3,1.8,25.2,5.2l2,1l5.1-17.3l-1.4-0.7c-2.7-1.4-12.9-6-31.5-6
			c-41.5,0-69.4,28-69.4,69.7c0,40.9,25.8,67.3,65.7,67.3c16.4,0,28.8-3.3,35-6.3l1.4-0.7l-4.4-17l-2.1,1
			c-6.6,3.2-16.7,5.2-26.4,5.2c-29.9,0-47.7-18.7-47.7-50C1613.7,2190.5,1632.3,2170.8,1662.2,2170.8z"/>
		<polygon class="st0" points="1925.5,2209.1 1866.9,2209.1 1866.9,2155.1 1846.4,2155.1 1846.4,2288 1866.9,2288 1866.9,2227.5 
			1925.5,2227.5 1925.5,2288 1946.2,2288 1946.2,2155.1 1925.5,2155.1 		"/>
		<path class="st0" d="M2141.2,2155.1l-45.2,133h21.3l13.4-40.6h43l13.8,40.6h21.9l-45.4-133H2141.2z M2157.3,2195.9l11.8,34.6
			h-33.6l11.8-34.9c1.6-5.2,3.2-10.7,4.9-17C2153.6,2184.2,2155.2,2189.8,2157.3,2195.9z"/>
		<path class="st0" d="M2440.4,2211c0,15.8,0.2,29.7,1.2,44.2c-5.4-10.9-11.8-22.1-19.3-34l-42-66.2h-21.2v133h19.5V2231
			c0-18.1-0.3-31.9-0.9-45.5c5.3,10.4,12,22.1,20.8,36.1l41.6,66.4h19.8v-133h-19.5V2211z"/>
		<path class="st0" d="M2676.2,2233.6h26.3v35.4c-2.7,1.1-8.8,2.8-20.3,2.8c-29.5,0-47.9-19.2-47.9-50.2c0-30.8,19.2-50,50-50
			c13.9,0,22.1,2.9,27.8,5.4l2,0.9l5.1-17.3l-1.5-0.7c-6.1-3-18-6.1-33-6.1c-42.8,0-71.6,27.6-71.9,68.6c0,20,6.8,38.1,18.6,49.5
			c12.4,11.8,28.6,17.6,49.6,17.6c16.7,0,31.2-3.9,40.3-7.2l1.3-0.5v-65.3h-46.4V2233.6z"/>
		<polygon class="st0" points="2900,2270.2 2900,2227.5 2950.3,2227.5 2950.3,2209.9 2900,2209.9 2900,2172.9 2953.1,2172.9 
			2953.1,2155.1 2879.6,2155.1 2879.6,2288 2956,2288 2956,2270.2 		"/>
	</g>
	<path class="st1" d="M1957.7,1754c33.3-33.3,50.2-74.9,50.2-123.7c0-38.1-8.8-71.4-26.1-99.1c-17.3-27.7-43.4-50.1-77.5-66.5
		c-18.2-8.6-41.5-14.7-69.2-18.2l-0.1,0c-10.5-1.2-22.1-2.2-34.7-2.9c-9.8-0.5-20.8-0.7-32.7-0.7h-151v83.5h88.2v-0.2h73.6
		c20.6,0,37.4,1,49.7,2.9c16,2.7,30.7,7.6,43.9,14.7c32.8,17.8,48.1,44.8,48.1,85.1c0,48.8-23.5,78.7-74,94.1l-0.1,0
		c-11.9,3.8-29,6.1-50.8,6.8l-90.3,0.6v-0.3h-88.2v273.1h88.2v-270.6l202.7,270.6h110.8l-151.4-199.9
		C1902.1,1795.6,1932.6,1779.1,1957.7,1754z"/>
	<polygon class="st1" points="2754.6,1712.1 2754.6,1712.1 2754.2,1711.5 2716,1654.1 2689.1,1613.7 2689.1,1613.7 2640.7,1540.7 
		2575.8,1443 2471.8,1443 2651.2,1717.4 2461.4,2003.1 2565.7,2003.1 2705.6,1793.6 2705.8,1794.1 2757.4,1716.3 	"/>
	<polygon class="st1" points="1225.7,1442.6 1225.7,1443 1220.2,1443 1219.2,1443 1132.3,1443 1131.2,1443 1091,1443 975.2,1443 
		975.2,1526.5 1091,1526.5 1131.2,1526.5 1132.3,1526.5 1132.3,2003.1 1220.5,2003.1 1220.5,1526.5 1225.7,1526.5 1247,1526.5 
		1375.2,1526.5 1376.2,1526.5 1377.1,1526.5 1377.1,1442.6 	"/>
	<rect x="2083.2" y="1919" class="st1" width="325.4" height="84.2"/>
	<rect x="2083.2" y="1681" class="st1" width="325.4" height="84.2"/>
	<rect x="2083" y="1443" class="st1" width="325.4" height="84.2"/>
	<path class="st2" d="M1427,1661.2c0,0.6,0,1.2,0.1,1.7v-3.5C1427,1660,1427,1660.6,1427,1661.2z"/>
	<path class="st0" d="M1524.9,1730.2c0-4.9-1.9-9.4-5.1-12.7l0.1,0l-60.6-60.6l-0.1,0l0,0c-3.4-3.8-8.3-6.2-13.8-6.2
		c-9.6,0-17.4,7.3-18.3,16.7v3.5v120.3l0.2,0.1c0.1,10,8.3,18.1,18.4,18.1c4.8,0,9.1-1.8,12.4-4.8c0,0,0,0,0,0l0,0l62-62l0,0
		C1523.1,1739.3,1524.9,1735,1524.9,1730.2z M1462,1661.1C1462,1661,1462,1661,1462,1661.1C1462,1661,1462,1661,1462,1661.1z
		 M1463.9,1669.2c0-0.3,0-0.6,0-0.9C1463.9,1668.6,1463.9,1668.9,1463.9,1669.2z M1463.8,1668c0-0.2,0-0.4,0-0.6
		C1463.8,1667.6,1463.8,1667.8,1463.8,1668z M1463.7,1667c0-0.2,0-0.3-0.1-0.5C1463.7,1666.7,1463.7,1666.8,1463.7,1667z
		 M1463.6,1666.1c0-0.2-0.1-0.3-0.1-0.5C1463.6,1665.8,1463.6,1665.9,1463.6,1666.1z M1463.4,1665.2c0-0.1-0.1-0.3-0.1-0.4
		C1463.4,1664.9,1463.4,1665.1,1463.4,1665.2z M1463.2,1664.3c0-0.1-0.1-0.2-0.1-0.4C1463.2,1664.1,1463.2,1664.2,1463.2,1664.3z
		 M1463,1663.5c0-0.1-0.1-0.2-0.1-0.3C1462.9,1663.3,1462.9,1663.4,1463,1663.5z M1462.7,1662.7c0-0.1-0.1-0.2-0.1-0.3
		C1462.6,1662.5,1462.6,1662.6,1462.7,1662.7z M1462.3,1661.8c0-0.1-0.1-0.1-0.1-0.2C1462.3,1661.7,1462.3,1661.8,1462.3,1661.8z"/>
	<polygon class="st1" points="2791.2,1767.7 2739.7,1845.4 2843.5,2003.1 2949.1,2003.1 	"/>
	<polygon class="st1" points="2834.5,1443 2739.4,1587.2 2791.6,1665.6 2825.4,1614.1 2825.4,1614.1 2938,1443 	"/>
</g>
<g>
	<path class="st0" d="M746.4,905.6V194.4c30.8-7.6,53.3-35.9,53.3-68c0-38.6-31.4-70-70-70s-70,31.4-70,70c0,5.9,0.7,11.8,2.2,17.5
		L176.5,490.7c-13.1-13.1-30.8-20.6-49.5-20.6c-38.6,0-70,31.4-70,70c0,38.6,31.4,70,70,70c12.9,0,25.4-3.5,36.3-10.2l499.9,351.2
		c-2.4,7.2-3.7,14.7-3.7,22.4c0,38.6,31.4,70,70,70s70-31.4,70-70C799.7,941.4,777.1,913.2,746.4,905.6z M729.6,1003.9
		c-16.7,0-30.3-13.6-30.3-30.3c0-16.7,13.6-30.3,30.3-30.3c16.7,0,30.3,13.6,30.3,30.3C760,990.3,746.4,1003.9,729.6,1003.9z
		 M193.3,562.9h290l195,350.4L190.2,570.4C191.4,568,192.4,565.5,193.3,562.9z M729.6,96.1c16.7,0,30.3,13.6,30.3,30.3
		s-13.6,30.3-30.3,30.3c-16.7,0-30.3-13.6-30.3-30.3S712.9,96.1,729.6,96.1z M510.1,547.4l196.5-353.7v706.7L510.1,547.4z
		 M195.6,525.9l482.7-345l-195,351H196.5C196.3,529.9,196,527.9,195.6,525.9z M157.3,540.2c0,16.7-13.6,30.3-30.3,30.3
		s-30.3-13.6-30.3-30.3c0-16.7,13.6-30.3,30.3-30.3S157.3,523.5,157.3,540.2z"/>
	<g>
		<polygon class="st0" points="1138.8,931.4 1189,931.4 1189,913.8 1138.8,913.8 1138.8,876.8 1191.9,876.8 1191.9,859 1118.3,859 
			1118.3,991.9 1194.8,991.9 1194.8,974.1 1138.8,974.1 		"/>
		<path class="st0" d="M1442.3,859h-23.7l-18.2,31.2c-4,6.9-7.1,12.4-10.4,19.1c-3.2-6.2-6.7-12.4-10.5-19.1L1362,859h-23.8
			l39.1,65.7l-40.6,67.3h23.7l16-29.3c6-10.1,9.5-16.6,12.6-22.9c3.8,6.8,7.9,13.7,13.4,22.7l17,29.5h23.9l-41.4-68.2L1442.3,859z"
			/>
		<path class="st0" d="M1649.3,874.7c9.4,0,18.3,1.8,25.2,5.2l2,1l5.1-17.3l-1.4-0.7c-2.7-1.4-12.9-6-31.5-6
			c-41.5,0-69.4,28-69.4,69.7c0,40.9,25.8,67.3,65.7,67.3c16.4,0,28.8-3.3,35-6.3l1.4-0.7l-4.4-17l-2.1,1
			c-6.6,3.2-16.7,5.2-26.4,5.2c-29.9,0-47.7-18.7-47.7-50C1600.8,894.3,1619.4,874.7,1649.3,874.7z"/>
		<polygon class="st0" points="1912.5,913 1853.9,913 1853.9,859 1833.4,859 1833.4,991.9 1853.9,991.9 1853.9,931.4 1912.5,931.4 
			1912.5,991.9 1933.2,991.9 1933.2,859 1912.5,859 		"/>
		<path class="st0" d="M2128.3,859l-45.2,133h21.3l13.4-40.6h43l13.8,40.6h21.9l-45.4-133H2128.3z M2144.3,899.8l11.8,34.6h-33.6
			l11.8-34.9c1.6-5.2,3.2-10.7,4.9-17C2140.7,888.1,2142.2,893.7,2144.3,899.8z"/>
		<path class="st0" d="M2427.4,914.9c0,15.8,0.2,29.7,1.2,44.2c-5.4-10.9-11.8-22.1-19.3-34l-42-66.2h-21.2v133h19.5v-57.1
			c0-18.1-0.3-31.9-0.9-45.5c5.3,10.4,12,22.1,20.8,36.1l41.6,66.4h19.8V859h-19.5V914.9z"/>
		<path class="st0" d="M2663.3,937.5h26.3v35.4c-2.7,1.1-8.8,2.8-20.3,2.8c-29.5,0-47.9-19.2-47.9-50.2c0-30.8,19.2-50,50-50
			c13.9,0,22.1,2.9,27.8,5.4l2,0.9l5.1-17.3l-1.5-0.7c-6.1-3-18-6.1-33-6.1c-42.8,0-71.6,27.6-71.9,68.6c0,20,6.8,38.1,18.6,49.5
			c12.4,11.8,28.6,17.6,49.6,17.6c16.7,0,31.2-3.9,40.3-7.2l1.3-0.5v-65.3h-46.4V937.5z"/>
		<polygon class="st0" points="2887.1,974.1 2887.1,931.4 2937.3,931.4 2937.3,913.8 2887.1,913.8 2887.1,876.8 2940.2,876.8 
			2940.2,859 2866.6,859 2866.6,991.9 2943,991.9 2943,974.1 		"/>
	</g>
	<path class="st3" d="M1944.7,457.9c33.3-33.3,50.2-74.9,50.2-123.7c0-38.1-8.8-71.4-26.1-99.1c-17.3-27.7-43.4-50.1-77.5-66.5
		c-18.2-8.6-41.5-14.7-69.2-18.2l-0.1,0c-10.5-1.2-22.1-2.2-34.7-2.9c-9.8-0.5-20.8-0.7-32.7-0.7h-151v83.5h88.2v-0.2h73.6
		c20.6,0,37.4,1,49.7,2.9c16,2.7,30.7,7.6,43.9,14.7c32.8,17.8,48.1,44.8,48.1,85.1c0,48.8-23.5,78.7-74,94.1l-0.1,0
		c-11.9,3.8-29,6.1-50.8,6.8l-90.3,0.6v-0.3h-88.2V707h88.2V436.4L1894.5,707h110.8l-151.4-199.9
		C1889.1,499.5,1919.7,482.9,1944.7,457.9z"/>
	<polygon class="st3" points="2741.7,416 2741.7,416 2741.3,415.4 2703.1,358 2676.2,317.6 2676.2,317.6 2627.7,244.6 2562.8,146.9 
		2458.8,146.9 2638.2,421.3 2448.5,707 2552.7,707 2692.6,497.5 2692.9,497.9 2744.5,420.2 	"/>
	<polygon class="st3" points="1212.8,146.5 1212.8,146.9 1207.2,146.9 1206.3,146.9 1119.3,146.9 1118.2,146.9 1078,146.9 
		962.2,146.9 962.2,230.3 1078,230.3 1118.2,230.3 1119.3,230.3 1119.3,707 1207.5,707 1207.5,230.3 1212.8,230.3 1234,230.3 
		1362.3,230.3 1363.2,230.3 1364.2,230.3 1364.2,146.5 	"/>
	<rect x="2070.2" y="622.9" class="st3" width="325.4" height="84.2"/>
	<rect x="2070.2" y="384.9" class="st3" width="325.4" height="84.2"/>
	<rect x="2070" y="146.8" class="st3" width="325.4" height="84.2"/>
	<path class="st2" d="M1414,365c0,0.6,0,1.2,0.1,1.7v-3.5C1414,363.9,1414,364.5,1414,365z"/>
	<path class="st0" d="M1511.9,434.1c0-4.9-1.9-9.4-5.1-12.7l0.1,0l-60.6-60.6l-0.1,0v0c-3.4-3.8-8.3-6.2-13.8-6.2
		c-9.6,0-17.4,7.3-18.3,16.7v3.5V495l0.2,0.1c0.1,10,8.3,18.1,18.4,18.1c4.8,0,9.1-1.8,12.4-4.8c0,0,0,0,0,0l0,0l62-62l0,0
		C1510.1,443.2,1511.9,438.9,1511.9,434.1z M1449,364.9C1449,364.9,1449,364.9,1449,364.9C1449,364.9,1449,364.9,1449,364.9z
		 M1450.9,373.1c0-0.3,0-0.6,0-0.9C1450.9,372.5,1450.9,372.8,1450.9,373.1z M1450.9,371.8c0-0.2,0-0.4,0-0.6
		C1450.8,371.4,1450.9,371.6,1450.9,371.8z M1450.8,370.9c0-0.2,0-0.3-0.1-0.5C1450.7,370.5,1450.8,370.7,1450.8,370.9z M1450.6,370
		c0-0.2-0.1-0.3-0.1-0.5C1450.6,369.7,1450.6,369.8,1450.6,370z M1450.5,369.1c0-0.1-0.1-0.3-0.1-0.4
		C1450.4,368.8,1450.4,368.9,1450.5,369.1z M1450.3,368.2c0-0.1-0.1-0.2-0.1-0.4C1450.2,368,1450.2,368.1,1450.3,368.2z M1450,367.4
		c0-0.1-0.1-0.2-0.1-0.3C1449.9,367.1,1450,367.3,1450,367.4z M1449.7,366.5c0-0.1-0.1-0.2-0.1-0.3
		C1449.6,366.4,1449.7,366.4,1449.7,366.5z M1449.4,365.7c0-0.1-0.1-0.1-0.1-0.2C1449.3,365.6,1449.4,365.7,1449.4,365.7z"/>
	<polygon class="st3" points="2778.2,471.6 2726.7,549.3 2830.5,707 2936.1,707 	"/>
	<polygon class="st3" points="2821.5,146.9 2726.5,291.1 2778.6,369.4 2812.5,318 2812.5,318 2925,146.9 	"/>
</g>
<path class="st0" d="M-4477.1,4726.9V3218c65.3-16.2,113.1-76.1,113.1-144.3c0-81.9-66.7-148.6-148.6-148.6
	c-81.9,0-148.6,66.7-148.6,148.6c0,12.5,1.6,25,4.7,37.1l-1029.7,735.9c-27.8-27.9-65.4-43.7-105.1-43.7
	c-81.9,0-148.6,66.7-148.6,148.6c0,81.9,66.7,148.6,148.6,148.6c27.4,0,53.8-7.4,77.1-21.6l1060.8,745.1
	c-5.2,15.3-7.8,31.2-7.8,47.5c0,81.9,66.7,148.6,148.6,148.6c81.9,0,148.6-66.7,148.6-148.6C-4364,4803-4411.9,4743.1-4477.1,4726.9
	z M-4512.6,4935.6c-35.5,0-64.4-28.9-64.4-64.4c0-35.5,28.9-64.4,64.4-64.4c35.5,0,64.4,28.9,64.4,64.4
	C-4448.3,4906.7-4477.1,4935.6-4512.6,4935.6z M-5650.8,3999.8h615.4l413.9,743.5l-1035.8-727.6
	C-5654.8,4010.6-5652.6,4005.2-5650.8,3999.8z M-4512.6,3009.3c35.5,0,64.4,28.9,64.4,64.4c0,35.5-28.9,64.4-64.4,64.4
	c-35.5,0-64.4-28.9-64.4-64.4C-4577,3038.2-4548.1,3009.3-4512.6,3009.3z M-4978.4,3966.9l417-750.5v1499.6L-4978.4,3966.9z
	 M-5645.9,3921.4l1024.3-732.1l-413.8,744.8h-608.5C-5644.3,3929.8-5645,3925.6-5645.9,3921.4z M-5727,3951.7
	c0,35.5-28.9,64.4-64.4,64.4s-64.4-28.9-64.4-64.4c0-35.5,28.9-64.4,64.4-64.4S-5727,3916.2-5727,3951.7z"/>
<g>
	<polygon class="st0" points="-3644.4,4781.7 -3537.9,4781.7 -3537.9,4744.3 -3644.4,4744.3 -3644.4,4665.8 -3531.8,4665.8 
		-3531.8,4628 -3687.9,4628 -3687.9,4910.2 -3525.7,4910.2 -3525.7,4872.4 -3644.4,4872.4 	"/>
	<path class="st0" d="M-3000.4,4628h-50.3l-38.6,66.3c-8.5,14.6-15.1,26.4-22,40.5c-6.8-13.2-14.2-26.2-22.2-40.4l-37.4-66.3h-50.6
		l82.9,139.4l-86.2,142.7h50.3l34-62.2c12.7-21.4,20.1-35.2,26.8-48.5c8,14.5,16.7,29,28.4,48.1l36.1,62.6h50.6l-87.8-144.7
		L-3000.4,4628z"/>
	<path class="st0" d="M-2561.3,4661.4c19.9,0,38.9,3.9,53.5,11l4.3,2.1l10.8-36.7l-3-1.5c-5.7-3-27.3-12.7-66.9-12.7
		c-88,0-147.2,59.5-147.2,148c0,86.7,54.7,142.7,139.5,142.7c34.9,0,61.2-6.9,74.2-13.4l2.9-1.5l-9.4-36l-4.5,2.2
		c-13.9,6.8-35.4,11-56,11c-63.4,0-101.2-39.7-101.2-106.1C-2664.2,4703.1-2624.7,4661.4-2561.3,4661.4z"/>
	<polygon class="st0" points="-2002.6,4742.7 -2127.1,4742.7 -2127.1,4628 -2170.6,4628 -2170.6,4910.2 -2127.1,4910.2 
		-2127.1,4781.7 -2002.6,4781.7 -2002.6,4910.2 -1958.7,4910.2 -1958.7,4628 -2002.6,4628 	"/>
	<path class="st0" d="M-1544.9,4628l-95.9,282.2h45.2l28.5-86.2h91.3l29.3,86.2h46.4l-96.3-282.2H-1544.9z M-1510.9,4714.7l25,73.5
		h-71.2l25-74c3.5-11,6.8-22.7,10.4-36.1C-1518.6,4689.8-1515.3,4701.8-1510.9,4714.7z"/>
	<path class="st0" d="M-910.1,4746.7c0,33.4,0.5,63,2.6,93.9c-11.6-23.1-25.1-46.8-41-72.1l-89-140.5h-44.9v282.2h41.5V4789
		c0-38.5-0.6-67.7-2-96.5c11.2,22.2,25.4,47,44.1,76.7l88.2,141h42.1V4628h-41.5V4746.7z"/>
	<path class="st0" d="M-409.6,4794.7h55.7v75c-5.7,2.3-18.6,5.9-43.1,5.9c-62.7,0-101.7-40.8-101.7-106.5
		c0-65.5,40.7-106.1,106.1-106.1c29.4,0,46.9,6.1,58.9,11.4l4.2,1.9l10.8-36.6l-3.1-1.5c-13-6.3-38.3-13-70.1-13
		c-90.8,0-152,58.5-152.5,145.6c0,42.5,14.4,80.8,39.5,105c26.3,25.1,60.7,37.3,105.3,37.3c35.5,0,66.1-8.3,85.5-15.3l2.7-1v-138.7
		h-98.4V4794.7z"/>
	<polygon class="st0" points="65.2,4872.4 65.2,4781.7 171.8,4781.7 171.8,4744.3 65.2,4744.3 65.2,4665.8 177.9,4665.8 177.9,4628 
		21.7,4628 21.7,4910.2 184,4910.2 184,4872.4 	"/>
</g>
<path class="st1" d="M-1934.3,3776.9c70.7-70.7,106.5-158.9,106.5-262.4c0-80.7-18.6-151.5-55.4-210.2
	c-36.8-58.8-92.1-106.2-164.5-141.1c-38.7-18.3-88.1-31.2-146.7-38.6l-0.2,0c-22.2-2.5-46.9-4.6-73.7-6.1c-20.7-1-44-1.5-69.4-1.5
	h-320.4v177.2h187.1v-0.3h156.1c43.8,0,79.3,2.1,105.5,6.1c33.9,5.7,65.2,16.2,93.1,31.2c69.7,37.8,102.1,95.1,102.1,180.5
	c0,103.6-49.9,167.1-157.1,199.7l-0.3,0.1c-25.3,8.2-61.6,13-107.8,14.3l-191.6,1.2v-0.7h-187.1v579.4h187.1v-574.1l430.2,574.1
	h235.1l-321.3-424.2C-2052.3,3865.2-1987.6,3830.2-1934.3,3776.9z"/>
<polygon class="st1" points="-243.3,3688.1 -243.3,3688.1 -244.2,3686.8 -325.2,3565.1 -382.3,3479.3 -382.3,3479.3 -485.1,3324.5 
	-622.9,3117 -843.6,3117 -462.9,3699.4 -865.5,4305.6 -644.2,4305.6 -347.4,3861.1 -346.8,3862 -237.4,3696.9 "/>
<polygon class="st1" points="-3487.5,3116.2 -3487.5,3117 -3499.3,3117 -3501.3,3117 -3685.8,3117 -3688.1,3117 -3773.4,3117 
	-4019.1,3117 -4019.1,3294.2 -3773.4,3294.2 -3688.1,3294.2 -3685.8,3294.2 -3685.8,4305.6 -3498.7,4305.6 -3498.7,3294.2 
	-3487.5,3294.2 -3442.4,3294.2 -3170.3,3294.2 -3168.3,3294.2 -3166.2,3294.2 -3166.2,3116.2 "/>
<rect x="-1668.1" y="4127.2" class="st1" width="690.4" height="178.7"/>
<rect x="-1668.1" y="3622.1" class="st1" width="690.4" height="178.7"/>
<rect x="-1668.5" y="3117" class="st1" width="690.4" height="178.7"/>
<path class="st2" d="M-3060.5,3580c0,1.2,0.1,2.5,0.2,3.7v-7.3C-3060.4,3577.5-3060.5,3578.8-3060.5,3580z"/>
<path class="st0" d="M-2852.7,3726.5c0-10.4-4.1-19.9-10.7-26.9l0.2-0.1l-128.5-128.5l-0.3,0.1v0c-7.1-8.1-17.6-13.2-29.2-13.2
	c-20.3,0-37,15.5-38.8,35.3v7.3v255.2l0.3,0.2c0.3,21.3,17.6,38.4,39,38.4c10.1,0,19.3-3.8,26.3-10.2c0,0,0,0,0,0l0.1,0l131.5-131.5
	l-0.1-0.1C-2856.6,3745.9-2852.7,3736.7-2852.7,3726.5z M-2986.2,3579.8c0-0.1-0.1-0.1-0.1-0.2
	C-2986.2,3579.7-2986.2,3579.7-2986.2,3579.8z M-2982.2,3597c0-0.6,0-1.3,0-1.9C-2982.2,3595.7-2982.2,3596.4-2982.2,3597z
	 M-2982.3,3594.4c0-0.4-0.1-0.8-0.1-1.2C-2982.3,3593.6-2982.3,3594-2982.3,3594.4z M-2982.5,3592.4c0-0.4-0.1-0.7-0.1-1.1
	C-2982.5,3591.7-2982.5,3592-2982.5,3592.4z M-2982.7,3590.4c-0.1-0.3-0.1-0.6-0.2-1C-2982.8,3589.8-2982.8,3590.1-2982.7,3590.4z
	 M-2983.1,3588.5c-0.1-0.3-0.1-0.6-0.2-0.9C-2983.2,3588-2983.2,3588.3-2983.1,3588.5z M-2983.6,3586.7c-0.1-0.3-0.1-0.5-0.2-0.8
	C-2983.7,3586.2-2983.6,3586.4-2983.6,3586.7z M-2984.1,3584.9c-0.1-0.2-0.2-0.5-0.2-0.7
	C-2984.3,3584.5-2984.2,3584.7-2984.1,3584.9z M-2984.7,3583.2c-0.1-0.2-0.2-0.4-0.2-0.6C-2984.9,3582.8-2984.8,3583-2984.7,3583.2z
	 M-2985.4,3581.5c-0.1-0.1-0.1-0.3-0.2-0.4C-2985.5,3581.2-2985.5,3581.3-2985.4,3581.5z"/>
<polygon class="st1" points="-165.8,3806 -275.1,3971 -54.8,4305.6 169.2,4305.6 "/>
<polygon class="st1" points="-73.8,3117 -275.6,3423.1 -164.9,3589.3 -93.1,3480.1 -93.1,3480.1 145.7,3117 "/>
</svg>
